# xmcd
#
# Track frame offsets: 
#        150
#        10489
#        22784
#        36231
#        48694
#        61392
#        72271
#        82767
#        94359
#        107849
#        117978
#        130275
#        145681
#        156088
#        165233
#        183970
#        195912
#        208272
#        219730
#        230566
#        242126
#        256138
#        267919
#        281152
#
# Disc length: 3914 seconds
#
# Revision: 0
# Processed by: cddbd v1.5.1PL2 Copyright (c) Steve Scherf et al.
# Submitted via: ExactAudioCopy v0.95b4
#
DISCID=580f4818
DTITLE=Various Artist - The History of Country Music Volume 2
DYEAR=1970
DGENRE=Classic Country
TTITLE0=Roger Miller - King of the Road
TTITLE1=George Morgan - Candy Kisses
TTITLE2=Tom T. Hall - Ballad of 40 Dollars
TTITLE3=Jerry Lee Lewis - One Has My Name
TTITLE4=Johnny Cash - Folsom Prison Blues
TTITLE5=Johnny Cash - I Walk the Line
TTITLE6=Eddy Arnold - Anytime
TTITLE7=Eddy Arnold - Cattle Call
TTITLE8=Hank Snow - I Don't Hurt Anymore
TTITLE9=Jim Reeves - Blue Boy
TTITLE10=Bobby Bare - Five Hundred Miles Away From Home
TTITLE11=Roy Clark - Yesterday
TTITLE12=Waylon Jennings - Anita, You're Dreaming
TTITLE13=Waylon Jennings - Brown Eyed Handsome Man
TTITLE14=Red Sovine - Giddy Up Go
TTITLE15=Patsy Cline - Walking After Midnight
TTITLE16=Hawkshaw Hawkins - Lonesome 7-7203
TTITLE17=Sammi Smith - Help Me Make it Through the Night
TTITLE18=Eddy Arnold - Bouquet of Roses
TTITLE19=Marvin Rainwater - Gonna Find Me a Bluebird
TTITLE20=Jerry Wallace - Shutters and Boards
TTITLE21=Donna Fargo - Funny Face
TTITLE22=Hank Williams - Love Sick Blues
TTITLE23=Hank Williams - I'm so Lonesome I Could Cry
EXTD=
EXTT0=
EXTT1=
EXTT2=
EXTT3=
EXTT4=
EXTT5=
EXTT6=
EXTT7=
EXTT8=
EXTT9=
EXTT10=
EXTT11=
EXTT12=
EXTT13=
EXTT14=
EXTT15=
EXTT16=
EXTT17=
EXTT18=
EXTT19=
EXTT20=
EXTT21=
EXTT22=
EXTT23=
PLAYORDER=
